<mxfile host="65bd71144e">
    <diagram id="6kYIJkfVk-tji89tBiHa" name="Page-1">
        <mxGraphModel dx="386" dy="317" grid="1" gridSize="10" guides="1" tooltips="1" connect="1" arrows="1" fold="1" page="1" pageScale="1" pageWidth="850" pageHeight="1100" math="0" shadow="0">
            <root>
                <mxCell id="0"/>
                <mxCell id="1" parent="0"/>
                <mxCell id="4" value="" style="edgeStyle=none;html=1;" edge="1" parent="1" source="2" target="3">
                    <mxGeometry relative="1" as="geometry"/>
                </mxCell>
                <mxCell id="2" value="start" style="html=1;dashed=0;whiteSpace=wrap;shape=mxgraph.dfd.start;strokeWidth=2;" vertex="1" parent="1">
                    <mxGeometry x="385" y="40" width="80" height="30" as="geometry"/>
                </mxCell>
                <mxCell id="6" value="" style="edgeStyle=none;html=1;" edge="1" parent="1" source="3" target="5">
                    <mxGeometry relative="1" as="geometry"/>
                </mxCell>
                <mxCell id="3" value="&lt;div style=&quot;color: rgb(230, 237, 243); background-color: rgb(13, 17, 23); font-family: &amp;quot;Droid Sans Mono&amp;quot;, &amp;quot;monospace&amp;quot;, monospace; font-size: 14px; line-height: 19px; white-space: pre;&quot;&gt;&lt;span style=&quot;color: #e6edf3;&quot;&gt;aggregated&lt;/span&gt;&lt;span style=&quot;color: #e6edf3;&quot;&gt; &lt;/span&gt;&lt;span style=&quot;color: #ff7b72;&quot;&gt;=&lt;/span&gt;&lt;span style=&quot;color: #e6edf3;&quot;&gt; &lt;/span&gt;&lt;span style=&quot;color: #79c0ff;&quot;&gt;0&lt;/span&gt;&lt;/div&gt;" style="shape=parallelogram;html=1;strokeWidth=2;perimeter=parallelogramPerimeter;whiteSpace=wrap;rounded=1;arcSize=12;size=0.23;" vertex="1" parent="1">
                    <mxGeometry x="350" y="100" width="150" height="40" as="geometry"/>
                </mxCell>
                <mxCell id="5" value="&lt;div style=&quot;color: rgb(230, 237, 243); background-color: rgb(13, 17, 23); font-family: &amp;quot;Droid Sans Mono&amp;quot;, &amp;quot;monospace&amp;quot;, monospace; font-size: 14px; line-height: 19px; white-space: pre;&quot;&gt;&lt;div style=&quot;color: rgb(230, 237, 243); line-height: 19px;&quot;&gt;&lt;span style=&quot;color: #e6edf3;&quot;&gt;numbers&lt;/span&gt;&lt;span style=&quot;color: #e6edf3;&quot;&gt; &lt;/span&gt;&lt;span style=&quot;color: #ff7b72;&quot;&gt;=&lt;/span&gt;&lt;span style=&quot;color: #e6edf3;&quot;&gt; [&lt;/span&gt;&lt;span style=&quot;color: #79c0ff;&quot;&gt;39&lt;/span&gt;&lt;span style=&quot;color: #e6edf3;&quot;&gt;, &lt;/span&gt;&lt;span style=&quot;color: #79c0ff;&quot;&gt;89&lt;/span&gt;&lt;span style=&quot;color: #e6edf3;&quot;&gt;, &lt;/span&gt;&lt;span style=&quot;color: #79c0ff;&quot;&gt;72&lt;/span&gt;&lt;span style=&quot;color: #e6edf3;&quot;&gt;, &lt;/span&gt;&lt;span style=&quot;color: #79c0ff;&quot;&gt;27&lt;/span&gt;&lt;span style=&quot;color: #e6edf3;&quot;&gt;, &lt;/span&gt;&lt;span style=&quot;color: #79c0ff;&quot;&gt;15&lt;/span&gt;&lt;span style=&quot;color: #e6edf3;&quot;&gt;]&lt;/span&gt;&lt;/div&gt;&lt;/div&gt;" style="shape=parallelogram;html=1;strokeWidth=2;perimeter=parallelogramPerimeter;whiteSpace=wrap;rounded=1;arcSize=12;size=0.23;" vertex="1" parent="1">
                    <mxGeometry x="350" y="170" width="150" height="40" as="geometry"/>
                </mxCell>
            </root>
        </mxGraphModel>
    </diagram>
</mxfile>